<?xml version="1.0" encoding="UTF-8"?>
<svg width="14px" height="14px" viewBox="0 0 14 14" version="1.1" xmlns="http://www.w3.org/2000/svg" xmlns:xlink="http://www.w3.org/1999/xlink">
    <!-- Generator: Sketch 54.1 (76490) - https://sketchapp.com -->
    <title>ic_website_code-copy</title>
    <desc>Created with Sketch.</desc>
    <g id="ic_website_code-copy" stroke="none" stroke-width="1" fill="none" fill-rule="evenodd">
        <g>
            <rect id="矩形" x="0" y="0" width="14" height="14"></rect>
            <path d="M2,3.5 C1.72385763,3.5 1.5,3.72385763 1.5,4 L1.5,13 C1.5,13.2761424 1.72385763,13.5 2,13.5 L10,13.5 C10.2761424,13.5 10.5,13.2761424 10.5,13 L10.5,4 C10.5,3.72385763 10.2761424,3.5 10,3.5 L2,3.5 Z" id="路径" stroke="#6E6E6E"></path>
            <path d="M3.5,3 L3.5,2.5 C3.5,1.94771525 3.94771525,1.5 4.5,1.5 L11.5,1.5 C12.0522847,1.5 12.5,1.94771525 12.5,2.5 L12.5,10.5 C12.5,11.0522847 12.0522847,11.5 11.5,11.5 L11,11.5" id="路径-24" stroke="#6E6E6E"></path>
        </g>
    </g>
</svg>