<?xml version="1.0" encoding="UTF-8"?>
<svg width="14px" height="14px" viewBox="0 0 14 14" version="1.1" xmlns="http://www.w3.org/2000/svg" xmlns:xlink="http://www.w3.org/1999/xlink">
    <!-- Generator: Sketch 54.1 (76490) - https://sketchapp.com -->
    <title>ic_website_full-screen</title>
    <desc>Created with Sketch.</desc>
    <g id="ic_website_full-screen" stroke="none" stroke-width="1" fill="none" fill-rule="evenodd">
        <g id="ic_全屏">
            <rect id="矩形" opacity="0.200000003" fill-rule="nonzero" x="0" y="0" width="14" height="14"></rect>
            <g id="编组" transform="translate(1.500000, 1.500000)" stroke="#6E6E6E">
                <path d="M0.5,0.5 L4,4" id="路径-2"></path>
                <polyline id="路径-3" stroke-linecap="round" points="0 3 0 0 3 0"></polyline>
            </g>
            <g id="编组" transform="translate(10.000000, 4.000000) scale(-1, 1) translate(-10.000000, -4.000000) translate(7.500000, 1.500000)" stroke="#6E6E6E">
                <path d="M0.5,0.5 L4,4" id="路径-2"></path>
                <polyline id="路径-3" stroke-linecap="round" points="0 3 0 0 3 0"></polyline>
            </g>
            <g id="编组" transform="translate(4.000000, 10.000000) scale(1, -1) translate(-4.000000, -10.000000) translate(1.500000, 7.500000)" stroke="#6E6E6E">
                <path d="M0.5,0.5 L4,4" id="路径-2"></path>
                <polyline id="路径-3" stroke-linecap="round" points="0 3 0 0 3 0"></polyline>
            </g>
            <g id="编组" transform="translate(10.000000, 10.000000) scale(-1, -1) translate(-10.000000, -10.000000) translate(7.500000, 7.500000)" stroke="#6E6E6E">
                <path d="M0.5,0.5 L4,4" id="路径-2"></path>
                <polyline id="路径-3" stroke-linecap="round" points="0 3 0 0 3 0"></polyline>
            </g>
        </g>
    </g>
</svg>