<?xml version="1.0" standalone="no"?>
<!DOCTYPE svg PUBLIC "-//W3C//DTD SVG 1.1//EN" "http://www.w3.org/Graphics/SVG/1.1/DTD/svg11.dtd">
<svg xmlns="http://www.w3.org/2000/svg" xmlns:xlink="http://www.w3.org/1999/xlink" width="200" height="200" class="icon" p-id="1941" style="" t="1542855269249" version="1.1" viewBox="0 0 1024 1024">
    <defs>
        <style type="text/css"/>
    </defs>
    <path fill="#707070" d="M991.397415 907.301415 685.887015 601.792985c42.706708-60.226954 67.893169-131.4048 67.893169-209.148062-3.286646-101.8368-38.327138-186.153354-106.216369-252.949662C580.765538 71.802092 496.448985 36.7616 394.612185 33.476923c-101.8368 3.284677-186.153354 38.325169-254.044554 106.216369-66.796308 66.796308-101.8368 151.112862-104.026585 252.949662 3.284677 101.834831 38.325169 186.153354 105.121477 254.042585 66.796308 66.796308 151.112862 101.8368 252.949662 104.026585 77.745231 0 147.828185-24.0896 208.053169-66.796308L908.175754 990.523077 991.397415 907.301415zM106.622031 392.642954c2.189785-82.126769 30.660923-150.017969 84.316554-203.6736s121.546831-82.126769 203.6736-84.316554c82.126769 2.189785 150.016 30.660923 203.6736 84.316554 54.750523 53.655631 83.221662 121.546831 85.409477 203.6736-2.187815 82.126769-30.658954 150.016-85.409477 203.6736-53.6576 53.655631-121.5488 82.1248-203.6736 84.314585-82.126769-2.189785-150.017969-30.658954-203.6736-84.314585C137.282954 542.658954 108.811815 474.769723 106.622031 392.642954z" p-id="1942"/>
</svg>
